<svg xmlns="http://www.w3.org/2000/svg" viewBox="0 0 64 64" role="img" aria-label="TechHub Canada">
  <defs>
    <linearGradient id="chip-face" x1="12" y1="8" x2="54" y2="58" gradientUnits="userSpaceOnUse">
      <stop offset="0" stop-color="#123A54" />
      <stop offset="1" stop-color="#071B2B" />
    </linearGradient>
    <linearGradient id="signal" x1="13" y1="11" x2="51" y2="54" gradientUnits="userSpaceOnUse">
      <stop offset="0" stop-color="#17BEBB" />
      <stop offset="1" stop-color="#F8C14A" />
    </linearGradient>
  </defs>

  <rect width="64" height="64" rx="15" fill="#F6F9FC" />
  <path d="M18 4h4v8h-4V4Zm12 0h4v8h-4V4Zm12 0h4v8h-4V4ZM18 52h4v8h-4v-8Zm12 0h4v8h-4v-8Zm12 0h4v8h-4v-8ZM4 18h8v4H4v-4Zm0 12h8v4H4v-4Zm0 12h8v4H4v-4Zm48-24h8v4h-8v-4Zm0 12h8v4h-8v-4Zm0 12h8v4h-8v-4Z" fill="#0B2538" />
  <rect x="10" y="10" width="44" height="44" rx="11" fill="url(#chip-face)" />
  <rect x="13.5" y="13.5" width="37" height="37" rx="8" fill="none" stroke="url(#signal)" stroke-width="3" />

  <path id="circuit" d="M19 24h9m8 0h9M32 17v9m0 12v9M21 40h8m6 0h8" fill="none" stroke="#9BE7E5" stroke-width="3" stroke-linecap="round" />
  <path d="M20 29h9v-8h6v22h-6v-8h-9v8h-6V21h6v8Zm25-8v6h-7v16h-6V27h-7v-6h20Z" fill="#FFFFFF" />
  <circle cx="20" cy="24" r="2.5" fill="#F8C14A" />
  <circle cx="44" cy="40" r="2.5" fill="#17BEBB" />
</svg>
